# xmcd CD database file
#
# Track frame offsets:
#	180
#	17087
#	30365
#	44357
#	61542
#	76792
#	94517
#	106367
#	123625
#	138625
#	155867
#
# Disc length: 2458 seconds
#
# Revision: 0
# Processed by: cddbd v1.4PL0 Copyright (c) Steve Scherf et al.
# Submitted via: CDex 1.40Beta9
#
DISCID=8409980b
DTITLE=Coastline - From Alsace to Texas
DYEAR=1995
DGENRE=Country
TTITLE0=Alsace
TTITLE1=Till the coast is clear
TTITLE2=Thank Virginia
TTITLE3=Last fall when I needed Her
TTITLE4=To many Honky-Tonks (on my way home)
TTITLE5=Keep the light on
TTITLE6=South of the border
TTITLE7=If you still want me
TTITLE8=(Tonight we just might) Fall in love again
TTITLE9=The way to survive
TTITLE10=Alsace (Thann's remix)
EXTD=YEAR: 1995 ID3G: 2
EXTT0=
EXTT1=
EXTT2=
EXTT3=
EXTT4=
EXTT5=
EXTT6=
EXTT7=
EXTT8=
EXTT9=
EXTT10=
PLAYORDER=
